<svg xmlns="http://www.w3.org/2000/svg" xmlns:xlink="http://www.w3.org/1999/xlink" contentStyleType="text/css" data-diagram-type="DESCRIPTION" height="237px" preserveAspectRatio="none" style="width:529px;height:237px;background:#FFFFFF;" version="1.1" viewBox="0 0 529 237" width="529px" zoomAndPan="magnify"><defs/><g><!--cluster awe_mgr--><g id="cluster_awe_mgr"><path d="M8.5,6 L120.3652,6 A3.75,3.75 0 0 1 122.8652,8.5 L129.8652,28.2969 L519.5,28.2969 A2.5,2.5 0 0 1 522,30.7969 L522,90.8 A2.5,2.5 0 0 1 519.5,93.3 L8.5,93.3 A2.5,2.5 0 0 1 6,90.8 L6,8.5 A2.5,2.5 0 0 1 8.5,6 " fill="#AAAFAA" style="stroke:#000000;stroke-width:1.5;"/><line style="stroke:#000000;stroke-width:1.5;" x1="6" x2="129.8652" y1="28.2969" y2="28.2969"/><text fill="#000000" font-family="sans-serif" font-size="14" font-weight="bold" lengthAdjust="spacing" textLength="110.8652" x="10" y="20.9951">AWE-Manager</text></g><!--entity cfg_s--><g id="elem_cfg_s"><rect fill="#F1F1F1" height="36.2969" rx="2.5" ry="2.5" style="stroke:#181818;stroke-width:0.5;" width="109.9404" x="22.03" y="41"/><text fill="#000000" font-family="sans-serif" font-size="14" lengthAdjust="spacing" textLength="89.9404" x="32.03" y="63.9951">awe_CONFIG</text></g><!--entity awc_s--><g id="elem_awc_s"><rect fill="#F1F1F1" height="36.2969" rx="2.5" ry="2.5" style="stroke:#181818;stroke-width:0.5;" width="88.8379" x="166.58" y="41"/><text fill="#000000" font-family="sans-serif" font-size="14" lengthAdjust="spacing" textLength="68.8379" x="176.58" y="63.9951">awe_AWC</text></g><!--entity cmd_s--><g id="elem_cmd_s"><rect fill="#F1F1F1" height="36.2969" rx="2.5" ry="2.5" style="stroke:#181818;stroke-width:0.5;" width="88.2773" x="290.86" y="41"/><text fill="#000000" font-family="sans-serif" font-size="14" lengthAdjust="spacing" textLength="68.2773" x="300.86" y="63.9951">awe_CMD</text></g><!--entity ctrl_s--><g id="elem_ctrl_s"><rect fill="#F1F1F1" height="36.2969" rx="2.5" ry="2.5" style="stroke:#181818;stroke-width:0.5;" width="91.4971" x="414.25" y="41"/><text fill="#000000" font-family="sans-serif" font-size="14" lengthAdjust="spacing" textLength="71.4971" x="424.25" y="63.9951">awe_CTRL</text></g><!--entity AWC--><g id="elem_AWC"><path d="M184.4,169.65 C184.4,159.65 210.9977,159.65 210.9977,159.65 C210.9977,159.65 237.5953,159.65 237.5953,169.65 L237.5953,194.9469 C237.5953,204.9469 210.9977,204.9469 210.9977,204.9469 C210.9977,204.9469 184.4,204.9469 184.4,194.9469 L184.4,169.65 " fill="#F1F1F1" style="stroke:#181818;stroke-width:0.5;"/><path d="M184.4,169.65 C184.4,179.65 210.9977,179.65 210.9977,179.65 C210.9977,179.65 237.5953,179.65 237.5953,169.65 " fill="#FFFFFF" fill-opacity="0.00000" style="stroke:#181818;stroke-width:0.5;"/><text fill="#000000" font-family="sans-serif" font-size="14" lengthAdjust="spacing" textLength="33.1953" x="194.4" y="196.6451">AWC</text></g><!--entity shmem--><g id="elem_shmem"><ellipse cx="460" cy="182.3" fill="#F1F1F1" rx="8" ry="8" style="stroke:#181818;stroke-width:0.5;"/><text fill="#000000" font-family="sans-serif" font-size="14" lengthAdjust="spacing" textLength="57.1348" x="431.4326" y="212.2951">SHMEM/</text><text fill="#000000" font-family="sans-serif" font-size="14" lengthAdjust="spacing" textLength="45.7666" x="431.4326" y="228.592">socket</text></g><!--reverse link awc_s to AWC--><g id="link_awc_s_AWC"><path d="M211,83.77 C211,105.42 211,136.17 211,159.56 " fill="#FFFFFF" fill-opacity="0.00000" id="awc_s-backto-AWC" style="stroke:#181818;stroke-width:1;"/><polygon fill="#181818" points="211,77.77,207,86.77,211,82.77,215,86.77,211,77.77" style="stroke:#181818;stroke-width:1;"/></g><!--link ctrl_s to shmem--><g id="link_ctrl_s_shmem"><path d="M460,83.77 C460,110.54 460,148.39 460,167.53 " fill="#FFFFFF" fill-opacity="0.00000" id="ctrl_s-shmem" style="stroke:#181818;stroke-width:1;"/><polygon fill="#181818" points="460,77.77,456,86.77,460,82.77,464,86.77,460,77.77" style="stroke:#181818;stroke-width:1;"/><polygon fill="#181818" points="460,173.53,464,164.53,460,168.53,456,164.53,460,173.53" style="stroke:#181818;stroke-width:1;"/></g><!--SRC=[LOxDQiCm48Jl-nIBSpQbXznAG7N-2d4Iwe8FJJ0RUQqOMxAH16afVVSgTaZRFUr-CpkCQshJaoMDpzt7digoDWeVf-3kN7QwxmmRd_dFbj6oz6HKom0zoOOKOoJoHPoI2RkDa1pIXGkjBE942B4K0hy0CCpxLKXss-NBwdZroKeLxbSHUN8St-LVdAJpqQtBV_ZjTJDoRzl28G1yGqcUJkI6Jaa4Gn8-nJ66CpXguzbM98EUhTD5-d0mhfCD-w6sEslMS8iBJxEH_000]--></g></svg>