<?plantuml 1.2026.2beta3?><svg xmlns="http://www.w3.org/2000/svg" xmlns:xlink="http://www.w3.org/1999/xlink" contentStyleType="text/css" data-diagram-type="DESCRIPTION" height="244px" preserveAspectRatio="none" style="width:518px;height:244px;background:#FFFFFF;" version="1.1" viewBox="0 0 518 244" width="518px" zoomAndPan="magnify"><defs/><g><!--cluster awe_mgr--><g class="cluster" data-qualified-name="awe_mgr" data-source-line="3" id="ent0002"><path d="M9.5,124.29 L119.3652,124.29 A5.25,5.25 0 0 1 122.8652,127.79 L129.8652,146.5869 L333.5,146.5869 A3.5,3.5 0 0 1 337,150.0869 L337,234.09 A3.5,3.5 0 0 1 333.5,237.59 L9.5,237.59 A3.5,3.5 0 0 1 6,234.09 L6,127.79 A3.5,3.5 0 0 1 9.5,124.29" fill="#AAAFAA" style="stroke:#696969;stroke-width:1;"/><line style="stroke:#696969;stroke-width:1;" x1="6" x2="129.8652" y1="146.5869" y2="146.5869"/><text fill="#000000" font-family="sans-serif" font-size="14" font-weight="bold" lengthAdjust="spacing" textLength="110.8652" x="10" y="139.2851">AWE-Manager</text></g><!--entity cmd_s--><g class="entity" data-qualified-name="awe_mgr.cmd_s" data-source-line="4" id="ent0003"><rect fill="#F1F1F1" height="46.2969" rx="3.5" ry="3.5" style="stroke:#181818;stroke-width:0.5;" width="108.2773" x="29.86" y="167.29"/><rect fill="#F1F1F1" height="10" style="stroke:#181818;stroke-width:0.5;" width="15" x="118.1373" y="172.29"/><rect fill="#F1F1F1" height="2" style="stroke:#181818;stroke-width:0.5;" width="4" x="116.1373" y="174.29"/><rect fill="#F1F1F1" height="2" style="stroke:#181818;stroke-width:0.5;" width="4" x="116.1373" y="178.29"/><text fill="#000000" font-family="sans-serif" font-size="14" lengthAdjust="spacing" textLength="68.2773" x="44.86" y="200.2851">awe_CMD</text></g><!--entity comm_s--><g class="entity" data-qualified-name="awe_mgr.comm_s" data-source-line="5" id="ent0004"><rect fill="#F1F1F1" height="46.2969" rx="3.5" ry="3.5" style="stroke:#181818;stroke-width:0.5;" width="120.5957" x="172.7" y="167.29"/><rect fill="#F1F1F1" height="10" style="stroke:#181818;stroke-width:0.5;" width="15" x="273.2957" y="172.29"/><rect fill="#F1F1F1" height="2" style="stroke:#181818;stroke-width:0.5;" width="4" x="271.2957" y="174.29"/><rect fill="#F1F1F1" height="2" style="stroke:#181818;stroke-width:0.5;" width="4" x="271.2957" y="178.29"/><text fill="#000000" font-family="sans-serif" font-size="14" lengthAdjust="spacing" textLength="80.5957" x="187.7" y="200.2851">awe_COMM</text></g><!--entity cfg_s--><g class="entity" data-qualified-name="cfg_s" data-source-line="8" id="ent0005"><rect fill="#F1F1F1" height="46.2969" rx="3.5" ry="3.5" style="stroke:#181818;stroke-width:0.5;" width="129.9404" x="264.03" y="7"/><rect fill="#F1F1F1" height="10" style="stroke:#181818;stroke-width:0.5;" width="15" x="373.9704" y="12"/><rect fill="#F1F1F1" height="2" style="stroke:#181818;stroke-width:0.5;" width="4" x="371.9704" y="14"/><rect fill="#F1F1F1" height="2" style="stroke:#181818;stroke-width:0.5;" width="4" x="371.9704" y="18"/><text fill="#000000" font-family="sans-serif" font-size="14" lengthAdjust="spacing" textLength="89.9404" x="279.03" y="39.9951">awe_CONFIG</text></g><!--link cfg_s to awe_mgr--><g class="link" data-entity-1="ent0005" data-entity-2="ent0002" data-link-type="dependency" data-source-line="10" id="lnk6"><path d="M329,53.49 C329,64.2275 329,77.9138 329,92.447 C329,99.7137 329,107.1921 329,114.6195 C329,116.4764 329,118.33 329,120.1764 C329,121.0996 329,122.021 329,122.94 C329,123.1698 329,139.6963 329,139.9257" fill="none" id="cfg_s-to-awe_mgr" style="stroke:#454645;stroke-width:1;"/><polygon fill="#454645" points="329,145.9257,333,136.9257,329,140.9257,325,136.9257,329,145.9257" style="stroke:#454645;stroke-width:1;"/><text fill="#000000" font-family="sans-serif" font-size="13" lengthAdjust="spacing" textLength="180.7368" x="330" y="96.3569">set / retrieve configurations</text></g><?plantuml-src FSmn2y8m48RXFR_Yh7DmTn0EjU8G7Hr4obclCPIaSebr4F-xgLMdEvuNlacwicVetLae9ALkLBTa6GeyhBMXa7yfW2BGWojl1M2AY2KYFDLniALPdOPU-qiLlxGtPhJE-umlzVDTkTsCfR4vgCy1hHV_-Jb4JZ03uIIEUyuReN7sBfHS5-8R?></g></svg>